<svg width="20" height="20" viewBox="0 0 20 20" fill="none" xmlns="http://www.w3.org/2000/svg">
<path fill-rule="evenodd" clip-rule="evenodd" d="M9.47221 0.0728006C9.35425 0.111004 9.18736 0.178582 9.10134 0.222957C8.88558 0.334324 8.56805 0.656785 8.42151 0.913308C8.18813 1.32194 8.18681 1.34366 8.18606 4.81659L8.1854 7.97389L8.07142 8.08807L7.95744 8.20225L4.80566 8.20292C1.33881 8.20366 1.31713 8.20499 0.909208 8.43878C0.0551974 8.92827 -0.242601 9.96081 0.211252 10.8587C0.328702 11.091 0.643658 11.4073 0.909208 11.5595C1.31713 11.7933 1.33881 11.7946 4.80566 11.7953L7.95744 11.796L8.07142 11.9102L8.1854 12.0244L8.18606 15.1817C8.18681 18.6546 8.18813 18.6763 8.42151 19.0849C9.00518 20.1068 10.3883 20.3109 11.2137 19.497C11.3241 19.3881 11.4695 19.2027 11.5368 19.0849C11.7701 18.6763 11.7715 18.6546 11.7722 15.1817L11.7729 12.0244L11.8868 11.9102L12.0008 11.796L15.1526 11.7953C18.6195 11.7946 18.6411 11.7933 19.0491 11.5595C19.4546 11.3271 19.763 10.9391 19.8858 10.5069C19.9133 10.4103 19.9504 10.3145 19.9682 10.2941C20.0121 10.2439 20.0098 9.63725 19.9659 9.66444C19.9468 9.67628 19.9205 9.62897 19.9074 9.55932C19.8323 9.15929 19.4615 8.67518 19.0491 8.43878C18.6411 8.20499 18.6195 8.20366 15.1526 8.20292L12.0008 8.20225L11.8868 8.08807L11.7729 7.97389L11.7722 4.81659C11.7715 1.34366 11.7701 1.32194 11.5368 0.913308C11.3848 0.647293 11.0691 0.331785 10.8372 0.214129C10.403 -0.00614472 9.88235 -0.060051 9.47221 0.0728006ZM0.0102371 9.99913C0.0102371 10.1817 0.0169831 10.2564 0.0251718 10.1651C0.0333996 10.0739 0.0333996 9.92444 0.0251718 9.83311C0.0169831 9.74178 0.0102371 9.81651 0.0102371 9.99913Z" fill="white"/>
</svg>
