<svg width="21" height="21" viewBox="0 0 21 21" fill="none" xmlns="http://www.w3.org/2000/svg">
<path fill-rule="evenodd" clip-rule="evenodd" d="M8.76795 2.64267C9.83975 2.00795 11.1603 2.00795 12.232 2.64267L16.2679 5.03273C17.3397 5.66745 18 6.84046 18 8.1099V12.89C18 14.1595 17.3397 15.3325 16.2679 15.9672L12.232 18.3573C11.1603 18.992 9.83975 18.992 8.76795 18.3573L4.73205 15.9672C3.66025 15.3325 3 14.1595 3 12.89V8.1099C3 6.84046 3.66025 5.66745 4.73205 5.03273L8.76795 2.64267ZM9.66667 14.6666C9.66667 14.2064 10.0398 13.8333 10.5 13.8333C10.9602 13.8333 11.3333 14.2064 11.3333 14.6666C11.3333 15.1269 10.9602 15.5 10.5 15.5C10.0398 15.5 9.66667 15.1269 9.66667 14.6666ZM9.875 12.1666C9.875 12.5118 10.1548 12.7916 10.5 12.7916C10.8452 12.7916 11.125 12.5118 11.125 12.1666L11.125 6.33329C11.125 5.98811 10.8452 5.70829 10.5 5.70829C10.1548 5.70829 9.875 5.98811 9.875 6.33329L9.875 12.1666Z" fill="white"/>
</svg>
