<svg width="24" height="24" viewBox="0 0 24 24" fill="none" xmlns="http://www.w3.org/2000/svg">
<path fill-rule="evenodd" clip-rule="evenodd" d="M14.7 12C14.7 13.4912 13.4912 14.7 12 14.7C10.5088 14.7 9.3 13.4912 9.3 12C9.3 10.5088 10.5088 9.3 12 9.3C13.4912 9.3 14.7 10.5088 14.7 12ZM13.8 12C13.8 12.9941 12.9941 13.8 12 13.8C11.0059 13.8 10.2 12.9941 10.2 12C10.2 11.0059 11.0059 10.2 12 10.2C12.9941 10.2 13.8 11.0059 13.8 12Z" fill="black"/>
<path fill-rule="evenodd" clip-rule="evenodd" d="M9.24333 3.9C9.24333 3.40294 9.65473 3 10.1622 3H13.8378C14.3453 3 14.7567 3.40294 14.7567 3.9V5.00916C14.7567 6.04303 15.8713 6.69319 16.7712 6.18429L17.7837 5.61172C18.2232 5.3632 18.7852 5.51068 19.039 5.94115L20.8767 9.05884C21.1305 9.4893 20.9799 10.0397 20.5404 10.2883L19.5915 10.8249C18.6775 11.3417 18.6775 12.6583 19.5915 13.1751L20.5404 13.7117C20.9799 13.9603 21.1305 14.5107 20.8767 14.9411L19.039 18.0588C18.7852 18.4893 18.2232 18.6368 17.7837 18.3883L16.7712 17.8157C15.8713 17.3068 14.7567 17.957 14.7567 18.9908V20.1C14.7567 20.5971 14.3453 21 13.8378 21H10.1622C9.65473 21 9.24333 20.5971 9.24333 20.1V18.9908C9.24333 17.957 8.12876 17.3068 7.22882 17.8157L6.21628 18.3883C5.77678 18.6368 5.21479 18.4893 4.96105 18.0588L3.12326 14.9411C2.86952 14.5107 3.0201 13.9603 3.4596 13.7117L4.40854 13.1751C5.32252 12.6583 5.32252 11.3417 4.40854 10.8249L3.4596 10.2883C3.0201 10.0397 2.86952 9.4893 3.12326 9.05884L4.96105 5.94115C5.21479 5.51068 5.77678 5.3632 6.21628 5.61172L7.22882 6.18429C8.12876 6.6932 9.24333 6.04303 9.24333 5.00917V3.9ZM10.1433 5.00917V3.90558C10.1448 3.90436 10.1467 3.90315 10.149 3.9022C10.1514 3.90123 10.1553 3.9 10.1622 3.9H13.8378C13.8447 3.9 13.8487 3.90123 13.851 3.9022C13.8533 3.90315 13.8552 3.90436 13.8567 3.90558V5.00916C13.8567 6.73227 15.7143 7.81588 17.2142 6.96771L18.2267 6.39514C18.2311 6.39267 18.2346 6.39167 18.2382 6.39124C18.2423 6.39074 18.2474 6.39098 18.2525 6.39234C18.2577 6.39369 18.2622 6.39657 18.2622 6.39657L18.2636 6.39818L20.0955 9.50589L19.1485 10.0414C17.6251 10.9028 17.6251 13.0971 19.1485 13.9585L20.0955 14.4941L18.2636 17.6018L18.2631 17.6026L18.2622 17.6034C18.2622 17.6034 18.2577 17.6063 18.2525 17.6077C18.2474 17.609 18.2423 17.6093 18.2382 17.6087C18.2346 17.6083 18.2311 17.6073 18.2267 17.6048L17.2142 17.0323C15.7143 16.1841 13.8567 17.2677 13.8567 18.9908V20.0944L13.8529 20.0969L13.851 20.0978C13.8487 20.0988 13.8447 20.1 13.8378 20.1H10.1622C10.1553 20.1 10.1514 20.0988 10.149 20.0978L10.1464 20.0965L10.1433 20.0944V18.9908C10.1433 17.2677 8.28572 16.1841 6.78581 17.0323L5.77327 17.6048C5.7689 17.6073 5.76537 17.6083 5.76184 17.6087C5.75768 17.6093 5.75263 17.609 5.74747 17.6076C5.7423 17.6063 5.73779 17.6034 5.73779 17.6034L5.73637 17.6018L3.90446 14.4941L4.85154 13.9585C6.37485 13.0971 6.37485 10.9028 4.85154 10.0414L3.90446 9.50589L5.73637 6.39818L5.73779 6.39657C5.73779 6.39657 5.7423 6.39369 5.74747 6.39233C5.75263 6.39098 5.75768 6.39074 5.76184 6.39124C5.76537 6.39167 5.7689 6.39267 5.77327 6.39514L6.78581 6.96771C8.28572 7.81588 10.1433 6.73228 10.1433 5.00917Z" fill="black"/>
</svg>
